<?xml version="1.0" standalone="no"?>
<!DOCTYPE svg PUBLIC "-//W3C//DTD SVG 20010904//EN"
 "http://www.w3.org/TR/2001/REC-SVG-20010904/DTD/svg10.dtd">
<svg version="1.0" xmlns="http://www.w3.org/2000/svg"
 width="1000.000000pt" height="1000.000000pt" viewBox="0 0 1000.000000 1000.000000"
 preserveAspectRatio="xMidYMid meet">
<metadata>
Created by potrace 1.14, written by Peter Selinger 2001-2017
</metadata>
<g transform="translate(0.000000,1000.000000) scale(0.100000,-0.100000)"
fill="#000000" stroke="none">
<path d="M4659 9896 c-2 -2 -49 -7 -104 -10 -55 -4 -111 -8 -125 -10 -14 -2
-54 -6 -90 -10 -36 -4 -76 -9 -90 -11 -14 -2 -45 -7 -70 -10 -37 -5 -200 -35
-275 -51 -11 -2 -32 -6 -47 -9 -14 -3 -54 -12 -87 -21 -34 -8 -69 -17 -78 -19
-45 -10 -177 -49 -263 -77 -52 -18 -98 -33 -102 -34 -5 -1 -10 -3 -13 -4 -3
-1 -8 -3 -12 -4 -32 -7 -281 -108 -408 -166 -424 -193 -839 -464 -1210 -789
-55 -48 -361 -355 -410 -412 -22 -25 -58 -67 -80 -95 -22 -27 -45 -55 -53 -63
-7 -7 -57 -73 -112 -146 -133 -178 -259 -372 -370 -570 -87 -154 -280 -575
-280 -610 0 -7 -4 -16 -9 -20 -5 -3 -13 -20 -17 -37 -3 -18 -10 -39 -15 -48
-19 -35 -137 -436 -153 -520 -3 -14 -14 -68 -25 -120 -11 -53 -23 -113 -26
-135 -4 -22 -8 -47 -10 -55 -2 -8 -7 -42 -11 -75 -3 -33 -8 -62 -9 -65 -3 -4
-9 -57 -21 -165 -26 -243 -26 -771 0 -975 2 -14 7 -54 11 -90 8 -79 11 -102
20 -160 4 -25 8 -52 9 -60 1 -8 5 -31 9 -50 4 -19 9 -46 11 -60 3 -14 8 -36
11 -50 3 -14 8 -38 11 -55 3 -16 14 -66 25 -110 10 -44 21 -89 23 -100 3 -11
20 -74 40 -140 175 -599 476 -1179 858 -1657 45 -57 84 -105 87 -108 4 -3 35
-39 70 -80 112 -130 398 -411 520 -510 24 -19 48 -40 55 -45 111 -100 452
-336 605 -420 10 -6 25 -16 32 -21 42 -33 375 -201 522 -263 132 -56 414 -160
477 -176 8 -2 53 -15 100 -28 76 -22 131 -37 145 -38 2 0 19 -5 37 -10 45 -13
244 -56 293 -63 22 -3 49 -7 60 -9 11 -3 42 -8 68 -11 27 -4 56 -9 65 -11 10
-1 49 -6 87 -10 39 -4 78 -9 88 -11 132 -25 823 -25 987 1 14 2 54 7 90 11 83
9 153 19 215 30 11 2 36 6 55 10 19 3 55 9 80 14 25 6 56 12 70 14 38 6 278
66 335 83 529 161 906 335 1335 617 94 62 327 230 340 245 3 3 21 18 40 33 19
15 49 38 65 53 17 14 57 49 90 77 105 90 397 388 500 513 98 117 253 320 291
380 10 17 21 32 24 35 9 9 56 82 109 170 29 47 56 92 61 100 47 77 194 360
233 450 8 19 24 57 36 83 112 250 234 643 295 947 3 14 7 36 10 50 3 13 8 40
11 60 3 20 7 47 10 60 3 13 7 42 10 65 4 22 8 51 10 65 6 40 15 121 20 175 2
28 8 86 12 130 10 99 9 633 0 735 -14 140 -17 175 -22 210 -2 19 -7 55 -10 80
-6 44 -10 67 -20 130 -3 17 -7 45 -10 63 -55 332 -206 821 -355 1142 -51 111
-160 326 -186 367 -13 21 -24 40 -24 42 0 7 -126 210 -182 294 -65 97 -233
323 -288 388 -23 27 -63 74 -89 104 -52 61 -352 365 -421 426 -263 233 -548
436 -880 626 -135 78 -438 219 -605 283 -272 104 -689 220 -902 250 -21 3 -49
8 -63 11 -14 2 -34 6 -46 8 -23 5 -115 17 -154 21 -14 1 -61 6 -105 10 -44 4
-89 10 -100 12 -23 5 -631 14 -636 9z"/>
</g>
</svg>
